<svg width="28" height="28" viewBox="0 0 28 28" fill="none" xmlns="http://www.w3.org/2000/svg"><path fill-rule="evenodd" clip-rule="evenodd" d="M22 3H14C13.2044 3 12.4413 3.31607 11.8787 3.87868C11.3161 4.44129 11 5.20435 11 6V8H14C15.5913 8 17.1174 8.63214 18.2426 9.75736C19.3679 10.8826 20 12.4087 20 14V17H22C22.7956 17 23.5587 16.6839 24.1213 16.1213C24.6839 15.5587 25 14.7956 25 14V6C25 5.20435 24.6839 4.44129 24.1213 3.87868C23.5587 3.31607 22.7956 3 22 3ZM20 20H22C23.5913 20 25.1174 19.3679 26.2426 18.2426C27.3679 17.1174 28 15.5913 28 14V6C28 4.4087 27.3679 2.88258 26.2426 1.75736C25.1174 0.632141 23.5913 0 22 0H14C12.4087 0 10.8826 0.632141 9.75736 1.75736C8.63214 2.88258 8 4.4087 8 6V8H6C4.4087 8 2.88258 8.63214 1.75736 9.75736C0.632141 10.8826 0 12.4087 0 14V22C0 23.5913 0.632141 25.1174 1.75736 26.2426C2.88258 27.3679 4.4087 28 6 28H14C15.5913 28 17.1174 27.3679 18.2426 26.2426C19.3679 25.1174 20 23.5913 20 22V20ZM6 11H14C14.7956 11 15.5587 11.3161 16.1213 11.8787C16.6839 12.4413 17 13.2044 17 14V18.082L15.864 17.042C15.3161 16.5416 14.6041 16.2588 13.8621 16.247C13.1202 16.2352 12.3995 16.4952 11.836 16.978L8.398 19.924L7.194 19.02C6.67403 18.6305 6.04295 18.4178 5.39328 18.4131C4.74361 18.4084 4.10953 18.612 3.584 18.994L3 19.418V14C3 13.2044 3.31607 12.4413 3.87868 11.8787C4.44129 11.3161 5.20435 11 6 11ZM3.172 23.002C3.3791 23.5865 3.76222 24.0924 4.26865 24.4502C4.77508 24.808 5.37993 25.0001 6 25H14C14.7706 24.9999 15.5116 24.7032 16.0694 24.1714C16.6272 23.6397 16.959 22.9137 16.996 22.144L13.84 19.26C13.8328 19.2538 13.8235 19.2504 13.814 19.2504C13.8045 19.2504 13.7952 19.2538 13.788 19.26L9.438 22.988L8.524 23.77L7.562 23.05L5.394 21.422C5.38726 21.4173 5.37923 21.4147 5.371 21.4147C5.36277 21.4147 5.35474 21.4173 5.348 21.422L3.172 23.002ZM9.232 14.922C9.232 15.5341 8.98884 16.1212 8.556 16.554C8.12317 16.9868 7.53612 17.23 6.924 17.23C6.31188 17.23 5.72483 16.9868 5.292 16.554C4.85916 16.1212 4.616 15.5341 4.616 14.922C4.63367 14.3219 4.88448 13.7523 5.3152 13.3341C5.74591 12.9159 6.32264 12.6819 6.923 12.6819C7.52336 12.6819 8.10009 12.9159 8.5308 13.3341C8.96152 13.7523 9.21233 14.3219 9.23 14.922" fill="#F1912B"/></svg>